<svg width="500" height="700" viewBox="0 0 500 700" fill="none" xmlns="http://www.w3.org/2000/svg">
<path opacity="0.12" d="M628.308 204.167C637.724 204.17 647.048 202.319 655.748 198.717C664.448 195.116 672.353 189.835 679.01 183.177C685.668 176.519 690.949 168.615 694.551 159.915C698.152 151.215 700.004 141.891 700 132.475V43.75C700 32.1468 695.391 21.0188 687.186 12.8141C678.981 4.60936 667.853 0 656.25 0V0C644.647 0 633.519 4.60936 625.314 12.8141C617.109 21.0188 612.5 32.1468 612.5 43.75V116.667H514.092C496.493 89.1039 472.235 66.4182 443.556 50.7034C414.877 34.9886 382.702 26.751 350 26.751C317.298 26.751 285.123 34.9886 256.444 50.7034C227.765 66.4182 203.507 89.1039 185.908 116.667H87.5V43.75C87.5 32.1468 82.8906 21.0188 74.6859 12.8141C66.4812 4.60936 55.3532 0 43.75 0V0C32.1468 0 21.0188 4.60936 12.8141 12.8141C4.60937 21.0188 5.93839e-06 32.1468 5.93839e-06 43.75V132.475C0.00773574 151.486 7.56342 169.717 21.0065 183.16C34.4497 196.603 52.6802 204.159 71.6917 204.167H153.358L123.667 320.833H43.75C32.1468 320.833 21.0188 325.443 12.8141 333.647C4.60937 341.852 5.93839e-06 352.98 5.93839e-06 364.583C5.93839e-06 376.187 4.60937 387.315 12.8141 395.519C21.0188 403.724 32.1468 408.333 43.75 408.333H104.183C103.717 414.167 102.958 420 102.958 426.242C102.992 449.805 106.41 473.242 113.108 495.833H71.6917C62.2759 495.829 52.9517 497.681 44.2519 501.283C35.5522 504.884 27.6474 510.165 20.9895 516.823C14.3315 523.481 9.05089 531.385 5.4494 540.085C1.84792 548.785 -0.00382706 558.109 5.93839e-06 567.525V656.25C5.93839e-06 667.853 4.60937 678.981 12.8141 687.186C21.0188 695.391 32.1468 700 43.75 700C55.3532 700 66.4812 695.391 74.6859 687.186C82.8906 678.981 87.5 667.853 87.5 656.25V583.333H159.483C182.635 611.453 211.724 634.1 244.664 649.647C277.603 665.195 313.576 673.258 350 673.258C386.424 673.258 422.397 665.195 455.336 649.647C488.276 634.1 517.365 611.453 540.517 583.333H612.5V656.25C612.5 667.853 617.109 678.981 625.314 687.186C633.519 695.391 644.647 700 656.25 700C667.853 700 678.981 695.391 687.186 687.186C695.391 678.981 700 667.853 700 656.25V567.525C699.992 548.514 692.437 530.283 678.993 516.84C665.55 503.397 647.32 495.841 628.308 495.833H586.892C593.59 473.242 597.008 449.805 597.042 426.242C597.042 420.146 596.283 414.283 595.817 408.333H656.25C667.853 408.333 678.981 403.724 687.186 395.519C695.391 387.315 700 376.187 700 364.583C700 352.98 695.391 341.852 687.186 333.647C678.981 325.443 667.853 320.833 656.25 320.833H576.158L546.787 204.167H628.308ZM350 585.754C307.706 585.708 267.157 568.888 237.248 538.985C207.339 509.081 190.512 468.535 190.458 426.242C190.498 420.392 190.868 414.549 191.567 408.742L248.267 185.004C255.969 164.23 269.846 146.312 288.032 133.658C306.219 121.004 327.844 114.221 350 114.221C372.156 114.221 393.781 121.004 411.967 133.658C430.154 146.312 444.031 164.23 451.733 185.004L508.433 408.858C509.132 414.666 509.502 420.509 509.542 426.358C509.457 468.632 492.616 509.148 462.71 539.026C432.805 568.904 392.274 585.708 350 585.754Z" fill="#FF5314"/>
</svg>
